<svg id="Layer_1" data-name="Layer 1" xmlns="http://www.w3.org/2000/svg" viewBox="0 0 776.21 237.45"><defs><style>.cls-1,.cls-3{fill:#fff;}.cls-2{fill:#fdda1a;}.cls-3{font-size:119.65px;font-family:TwCenMT-Bold, Tw Cen MT;font-weight:700;}.cls-4{letter-spacing:-0.07em;}</style></defs><path class="cls-1" d="M392,666.33a6.42,6.42,0,0,0-8.57,3c-7,14.47-12.7,27.19-14.63,32.41-1.66,4.5-4.48,7-7.72,6.71s-7.11-3.3-8.54-9.63l-5.31-43.55a6.42,6.42,0,0,0-12.74,1.55l5.35,43.85a5.43,5.43,0,0,0,.09.56c2.39,11.27,10.52,19.32,20.22,20,.47,0,.94.06,1.4.06,8.49,0,15.8-5.68,19.29-15.12,1.78-4.8,7.47-17.37,14.16-31.3a6.41,6.41,0,0,0-3-8.56Z" transform="translate(-202.08 -483.86)"/><path class="cls-1" d="M441.64,591.15c10.6-20.47,14.25-38.83,10.84-54.58-5-22.85-23-41.84-47.16-49.58-29.92-9.6-55.52,4.88-72.15,16.6l-.14.1a8.83,8.83,0,0,1-10.31,0l-.09-.06C306,491.87,280.39,477.39,250.46,487c-24.13,7.74-42.2,26.73-47.15,49.58-5.76,26.55,9.81,55.9,23.88,75.84,13.9,19.71,43.41,81.89,47.8,93.78,3.49,9.44,10.8,15.12,19.29,15.12q.71,0,1.41-.06c9.7-.7,17.82-8.75,20.21-20a5.43,5.43,0,0,0,.09-.56l8.62-70.61a3.57,3.57,0,0,1,6.67.3A6.42,6.42,0,1,0,343.67,627c0-.13-.08-.27-.13-.44a16.39,16.39,0,0,0-31.3,0l-.13.43a6.66,6.66,0,0,0-.17.89l-8.65,70.91c-1.43,6.33-5.3,9.4-8.54,9.63s-6.06-2.21-7.72-6.71c-4.65-12.59-34.62-75.85-49.35-96.73-12.59-17.84-26.6-43.73-21.83-65.73s23-35.1,38.53-40.07c23.15-7.42,44.06,3.43,58.48,13.24a49.24,49.24,0,0,0,29,23.13,49.89,49.89,0,0,0,14.26,2.1,49.32,49.32,0,0,0,23.47-6,6.42,6.42,0,1,0-6.1-11.3,36.45,36.45,0,0,1-27.95,2.87,36.84,36.84,0,0,1-11.71-5.92,21.66,21.66,0,0,0,6.69-3.23l.05,0c14.41-10.15,36.39-22.73,60.86-14.88,15.51,5,33.77,18.11,38.53,40.08,2.76,12.75-.5,28.21-9.69,46a6.42,6.42,0,1,0,11.4,5.9Z" transform="translate(-202.08 -483.86)"/><rect class="cls-2" x="200.7" y="116.12" width="575.51" height="110.01" rx="55.01"/><text class="cls-3" transform="translate(225.94 208.85)">DEN<tspan class="cls-4" x="215.58" y="0">T</tspan><tspan x="264.54" y="0">ALUS</tspan></text></svg>